<svg xmlns="http://www.w3.org/2000/svg" viewBox="0.5 0 46 46"><g xmlns="http://www.w3.org/2000/svg" clip-path="url(#clip0_51_386)">
<path fill-rule="evenodd" clip-rule="evenodd" d="M26.5008 24.0852C25.7253 23.1906 24.6657 22.6379 23.5 22.6379C22.3343 22.6379 21.275 23.1906 20.4992 24.0852C19.7025 25.007 19.2109 26.2903 19.2109 27.7143C19.2109 29.1383 19.7025 30.4202 20.4992 31.3429C21.2747 32.2371 22.3343 32.7905 23.5 32.7905C24.6657 32.7905 25.725 32.2371 26.5008 31.3429C27.2975 30.4202 27.7891 29.1382 27.7891 27.7143C27.7891 26.2903 27.2975 25.007 26.5008 24.0852ZM3.91613 0H43.084C43.9895 0.000451741 44.8578 0.360229 45.4983 1.00033C46.1387 1.64044 46.499 2.50855 46.5 3.41406V42.5859C46.4991 43.4914 46.1388 44.3595 45.4984 44.9997C44.8579 45.6398 43.9896 45.9995 43.0841 46H3.91613C3.0106 45.9996 2.14226 45.6398 1.50176 44.9997C0.861268 44.3596 0.500976 43.4915 0.5 42.5859L0.5 3.41406C0.501023 2.50855 0.86133 1.64045 1.50182 1.00036C2.1423 0.360257 3.01062 0.000475467 3.91613 0ZM45.0631 10.8647V42.5859C45.0618 43.1102 44.8528 43.6126 44.4818 43.983C44.1109 44.3535 43.6082 44.5619 43.084 44.5625H3.91613C3.39188 44.5618 2.88927 44.3534 2.51833 43.983C2.14738 43.6125 1.93834 43.1102 1.93696 42.5859V10.8647H45.0631ZM1.93696 9.42721H45.0631V3.41406C45.0618 2.88979 44.8528 2.38739 44.4819 2.01692C44.1109 1.64644 43.6082 1.43809 43.084 1.4375H3.91613C3.39187 1.43814 2.88923 1.64651 2.51827 2.01697C2.14732 2.38744 1.93829 2.8898 1.93696 3.41406V9.42739V9.42721ZM8.84496 4.57934H7.13703V6.28637H8.84496V4.57934ZM6.41657 3.14184C6.22638 3.1425 6.04421 3.21852 5.90996 3.35324C5.77571 3.48796 5.70033 3.6704 5.70034 3.86059V7.00512C5.70033 7.19531 5.77571 7.37774 5.90996 7.51246C6.04421 7.64718 6.22638 7.7232 6.41657 7.72387H9.5611C9.75194 7.72406 9.93505 7.64845 10.0701 7.51366C10.2053 7.37888 10.2813 7.19596 10.2816 7.00512V3.86059C10.2815 3.76608 10.2628 3.67251 10.2265 3.58524C10.1903 3.49796 10.1372 3.41868 10.0703 3.35193C10.0033 3.28519 9.92394 3.23228 9.83658 3.19623C9.74922 3.16018 9.65561 3.14169 9.5611 3.14184H6.41657ZM12.4642 6.1516H17.3168C17.5074 6.1516 17.6902 6.07588 17.825 5.94108C17.9598 5.80629 18.0355 5.62348 18.0355 5.43285C18.0355 5.24223 17.9598 5.05941 17.825 4.92462C17.6902 4.78983 17.5074 4.7141 17.3168 4.7141H12.4642C12.2736 4.7141 12.0908 4.78983 11.956 4.92462C11.8212 5.05941 11.7455 5.24223 11.7455 5.43285C11.7455 5.62348 11.8212 5.80629 11.956 5.94108C12.0908 6.07588 12.2736 6.1516 12.4642 6.1516ZM20.4614 6.1516H25.3139C25.5046 6.1516 25.6874 6.07588 25.8222 5.94108C25.957 5.80629 26.0327 5.62348 26.0327 5.43285C26.0327 5.24223 25.957 5.05941 25.8222 4.92462C25.6874 4.78983 25.5046 4.7141 25.3139 4.7141H20.4614C20.2708 4.7141 20.088 4.78983 19.9532 4.92462C19.8184 5.05941 19.7426 5.24223 19.7426 5.43285C19.7426 5.62348 19.8184 5.80629 19.9532 5.94108C20.088 6.07588 20.2708 6.1516 20.4614 6.1516ZM28.4586 6.1516H33.3109C33.5016 6.1516 33.6844 6.07588 33.8192 5.94108C33.954 5.80629 34.0297 5.62348 34.0297 5.43285C34.0297 5.24223 33.954 5.05941 33.8192 4.92462C33.6844 4.78983 33.5016 4.7141 33.3109 4.7141H28.4586C28.2679 4.7141 28.0851 4.78983 27.9503 4.92462C27.8155 5.05941 27.7398 5.24223 27.7398 5.43285C27.7398 5.62348 27.8155 5.80629 27.9503 5.94108C28.0851 6.07588 28.2679 6.1516 28.4586 6.1516ZM36.4557 6.1516H41.304C41.4946 6.1516 41.6774 6.07588 41.8122 5.94108C41.947 5.80629 42.0227 5.62348 42.0227 5.43285C42.0227 5.24223 41.947 5.05941 41.8122 4.92462C41.6774 4.78983 41.4946 4.7141 41.304 4.7141H36.4555C36.2648 4.7141 36.082 4.78983 35.9472 4.92462C35.8124 5.05941 35.7367 5.24223 35.7367 5.43285C35.7367 5.62348 35.8124 5.80629 35.9472 5.94108C36.082 6.07588 36.2648 6.1516 36.4555 6.1516H36.4557ZM23.5 21.2004C25.102 21.2004 26.5429 21.9442 27.5812 23.1473C27.6531 23.2292 27.721 23.3135 27.7889 23.4V21.9192C27.7856 21.8228 27.8018 21.7268 27.8365 21.6368C27.8711 21.5468 27.9235 21.4647 27.9905 21.3954C28.0576 21.3261 28.1378 21.271 28.2266 21.2334C28.3154 21.1957 28.4108 21.1763 28.5072 21.1763C28.6036 21.1763 28.6991 21.1957 28.7878 21.2334C28.8766 21.271 28.9569 21.3261 29.0239 21.3954C29.0909 21.4647 29.1433 21.5468 29.178 21.6368C29.2126 21.7268 29.2288 21.8228 29.2256 21.9192V33.3141C29.3805 33.5406 29.5828 33.7306 29.8185 33.8711C30.1059 34.0422 30.4343 34.1319 30.7687 34.1308C31.1032 34.1297 31.431 34.0377 31.7172 33.8647C32.0255 33.6756 32.2807 33.4112 32.4588 33.0964L32.4715 33.0744C33.6508 31.092 34.141 28.7751 33.8658 26.4849C33.5906 24.1948 32.5654 22.06 30.95 20.4135C29.3346 18.7669 27.2198 17.7011 24.9353 17.3822C22.6508 17.0633 20.325 17.5091 18.3204 18.6503C16.3159 19.7915 14.7452 21.5639 13.8533 23.6911C12.9614 25.8183 12.7983 28.1809 13.3896 30.4105C13.9809 32.64 15.2932 34.6113 17.122 36.0171C18.9508 37.4228 21.1934 38.1839 23.5 38.1818C23.6906 38.1818 23.8734 38.2575 24.0082 38.3923C24.143 38.5271 24.2188 38.7099 24.2188 38.9005C24.2188 39.0912 24.143 39.274 24.0082 39.4088C23.8734 39.5436 23.6906 39.6193 23.5 39.6193C20.841 39.6388 18.2506 38.7758 16.1345 37.1655C14.0184 35.5552 12.4962 33.2885 11.8063 30.7205C11.1164 28.1525 11.2976 25.4281 12.3218 22.9741C13.3459 20.5202 15.1551 18.4752 17.4658 17.1595C19.7766 15.8438 22.4585 15.3316 25.0915 15.7033C27.7245 16.075 30.1599 17.3094 32.0162 19.2134C33.8725 21.1173 35.0449 23.5831 35.3498 26.2247C35.6546 28.8663 35.0748 31.5344 33.7009 33.8111C33.4021 34.337 32.9749 34.7786 32.4592 35.0948C31.9483 35.4051 31.3618 35.5689 30.764 35.5682C30.1849 35.568 29.6161 35.4147 29.1152 35.1239C28.6143 34.8332 28.1992 34.4152 27.9119 33.9123C27.8321 33.7929 27.7893 33.6526 27.789 33.5089V32.0277C27.7211 32.1138 27.6533 32.1984 27.5813 32.2799C26.543 33.4831 25.1016 34.2277 23.5001 34.2277C21.8985 34.2277 20.4572 33.4831 19.4146 32.2799C18.4017 31.1051 17.7745 29.4904 17.7745 27.7143C17.7745 25.9382 18.4017 24.3226 19.4146 23.1473C20.4572 21.9442 21.8981 21.2004 23.5 21.2004Z" fill="#2E68FF"></path>
</g></svg>