<svg xmlns="http://www.w3.org/2000/svg" width="46" height="46" viewBox="0 0 46 46" fill="none">
<g clip-path="url(#clip0_51_370)">
<path fill-rule="evenodd" clip-rule="evenodd" d="M20.0298 33.8204L20.1017 31.7033L21.5087 32.8388L20.0298 33.8204ZM44.9233 37.9026V11.4455C44.9229 11.1118 44.7901 10.792 44.5541 10.5561C44.3181 10.3203 43.9981 10.1878 43.6644 10.1876H35.717V15.7746C39.0359 17.7108 40.8585 20.2841 40.8585 23.0473C40.8585 25.7363 39.1079 28.2752 35.929 30.1961C32.8563 32.0531 28.7145 33.1743 24.2684 33.3527C24.26 33.3527 24.2516 33.3527 24.243 33.3527C24.1029 33.3511 23.9689 33.2951 23.8695 33.1965C23.77 33.0978 23.7128 32.9643 23.71 32.8243C23.7073 32.6842 23.7592 32.5486 23.8547 32.4461C23.9502 32.3436 24.0819 32.2824 24.2218 32.2753C32.9449 31.9249 39.7776 27.8713 39.7776 23.0469C39.7776 20.8318 38.345 18.7218 35.7167 17.0378V21.6343C35.717 21.7287 35.6925 21.8215 35.6457 21.9035C35.5989 21.9855 35.5314 22.0537 35.4499 22.1015L23.2681 29.1329C23.1872 29.1806 23.095 29.2054 23.0011 29.2048C22.906 29.2049 22.8125 29.1801 22.7299 29.1329L10.5523 22.1015C10.4703 22.0541 10.4022 21.986 10.3546 21.9042C10.307 21.8224 10.2816 21.7295 10.2809 21.6348V17.0384C7.6575 18.7224 6.22458 20.8324 6.22458 23.0475C6.22458 27.2862 11.5738 31.0239 19.0126 32.0339L19.0591 30.5874C19.0624 30.4872 19.0936 30.3899 19.1491 30.3064C19.2046 30.223 19.2823 30.1566 19.3735 30.1149C19.4646 30.0732 19.5656 30.0577 19.6651 30.0702C19.7645 30.0827 19.8585 30.1226 19.9365 30.1856L22.7595 32.4622C22.8253 32.5155 22.8776 32.5836 22.9121 32.6609C22.9467 32.7382 22.9626 32.8226 22.9584 32.9072C22.9543 32.9918 22.9303 33.0742 22.8884 33.1478C22.8464 33.2213 22.7878 33.284 22.7171 33.3307L19.7586 35.2983C19.6755 35.353 19.5791 35.3839 19.4797 35.3877C19.3803 35.3915 19.2818 35.368 19.1948 35.3198C19.1085 35.2715 19.0372 35.2004 18.9887 35.1143C18.9401 35.0281 18.9161 34.9303 18.9193 34.8315L18.9744 33.1175C15.2105 32.6194 11.7856 31.411 9.2976 29.6981C6.61872 27.8507 5.14367 25.4886 5.14367 23.0471C5.14367 20.2839 6.96633 17.7104 10.2809 15.7744V10.1875H2.33776C2.00411 10.1876 1.68415 10.3201 1.44813 10.556C1.2121 10.7918 1.0793 11.1116 1.07887 11.4453V37.9025C1.0792 38.2361 1.21197 38.556 1.44802 38.7919C1.68407 39.0277 2.00408 39.1602 2.33776 39.1603H43.6642C43.9979 39.1602 44.3179 39.0277 44.5539 38.7919C44.79 38.556 44.923 38.2363 44.9233 37.9026ZM25.1038 42.4902H20.8991V40.2386H25.1038V42.4902ZM29.1983 43.9682V44.9218H16.8V43.9682C16.8008 43.8618 16.8435 43.7601 16.9189 43.6852C16.9944 43.6102 17.0963 43.5681 17.2027 43.568H28.7995C28.9054 43.5683 29.0069 43.6106 29.0816 43.6856C29.1563 43.7607 29.1985 43.8623 29.1983 43.9682ZM23.0011 1.16168L34.1021 7.57095L23.0011 13.9802L11.9001 7.57095L23.0011 1.16168ZM23.5392 14.914L34.6405 8.5047V21.3232L23.5392 27.7325V14.914ZM11.3616 16.0819V8.5047L22.4628 14.914V27.7325L11.3618 21.3232L11.3616 16.0819ZM43.6642 9.11006H35.717V7.57095C35.7173 7.47652 35.6927 7.38368 35.6459 7.3017C35.599 7.21973 35.5314 7.15147 35.4499 7.10376L23.2681 0.0724121C23.1863 0.0251353 23.0935 0.000244141 22.999 0.000244141C22.9045 0.000244141 22.8117 0.0251353 22.7299 0.0724121L10.5523 7.10385C10.4703 7.15134 10.4021 7.21942 10.3545 7.30137C10.3069 7.38332 10.2815 7.47628 10.2809 7.57104V9.11006H2.33776C1.71802 9.11051 1.12374 9.35665 0.685163 9.79451C0.246588 10.2324 -0.00050269 10.8263 -0.00195312 11.446V37.9032C-0.000431633 38.5229 0.246682 39.1167 0.685241 39.5546C1.1238 39.9925 1.71804 40.2386 2.33776 40.2391H19.8222V42.4907H17.2027C17.0085 42.4906 16.8162 42.5288 16.6368 42.603C16.4573 42.6772 16.2943 42.7861 16.1569 42.9233C16.0196 43.0606 15.9106 43.2235 15.8362 43.4029C15.7618 43.5823 15.7235 43.7745 15.7234 43.9687V45.4608C15.7234 45.6037 15.7801 45.7407 15.8811 45.8418C15.982 45.9429 16.119 45.9997 16.2618 45.9999H29.7406C29.8834 45.9997 30.0203 45.9428 30.1213 45.8418C30.2222 45.7407 30.2789 45.6037 30.2789 45.4608V43.9682C30.278 43.5762 30.1218 43.2006 29.8445 42.9236C29.5672 42.6466 29.1915 42.4907 28.7995 42.4902H26.18V40.2386H43.6642C44.2835 40.238 44.8774 39.9917 45.3153 39.5538C45.7533 39.1158 45.9995 38.522 46.0001 37.9026V11.4455C45.9995 10.8262 45.7532 10.2324 45.3152 9.79458C44.8773 9.35673 44.2835 9.11054 43.6642 9.11006Z" fill="#2E68FF"/>
</g>
<defs>
<clipPath id="clip0_51_370">
<rect width="46" height="46" fill="white"/>
</clipPath>
</defs>
</svg>