<svg xmlns="http://www.w3.org/2000/svg" width="46" height="46" viewBox="0 0 46 46" fill="none">
<g clip-path="url(#clip0_51_366)">
<path fill-rule="evenodd" clip-rule="evenodd" d="M42.5859 3.57471H3.41406C1.49976 3.57471 0 4.669 0 6.06545V31.8119C0 33.2079 1.4994 34.3013 3.41406 34.3013H16.0406C15.296 37.2824 14.0281 39.3094 11.7937 41.1512C11.6795 41.2455 11.5972 41.3727 11.558 41.5154C11.5188 41.6582 11.5246 41.8096 11.5746 41.9489C11.6246 42.0883 11.7164 42.2088 11.8375 42.294C11.9585 42.3793 12.103 42.4251 12.251 42.4252H33.7488C33.8902 42.4252 34.0283 42.3835 34.1461 42.3054C34.2639 42.2272 34.356 42.1161 34.411 41.9859C34.4659 41.8557 34.4812 41.7122 34.4551 41.5733C34.4289 41.4344 34.3623 41.3063 34.2637 41.205C32.1981 39.0819 30.3932 37.2239 29.8793 34.3013H42.5859C44.5007 34.3013 46 33.2079 46 31.8119V6.06545C46 4.669 44.5006 3.57471 42.5859 3.57471ZM3.41406 5.01221H42.5859C43.7171 5.01221 44.5625 5.56924 44.5625 6.06536V27.6891H1.4375V6.06545C1.4375 5.5696 2.28257 5.01221 3.41406 5.01221ZM32.0633 40.9876H14.0823C15.8016 39.1801 16.8726 37.0801 17.5197 34.3013H28.422C28.8543 37.173 30.333 39.1297 32.0633 40.9876ZM42.5859 32.8648H3.41406C2.28293 32.8648 1.4375 32.3084 1.4375 31.8116V29.1263H44.5625V31.8119C44.5625 32.3086 43.7171 32.865 42.5859 32.865V32.8648ZM23 29.3233C23.3307 29.3233 23.654 29.4213 23.9289 29.605C24.2039 29.7888 24.4182 30.0499 24.5448 30.3554C24.6714 30.6609 24.7045 30.9971 24.64 31.3215C24.5754 31.6458 24.4162 31.9437 24.1824 32.1776C23.9485 32.4114 23.6506 32.5706 23.3263 32.6352C23.0019 32.6997 22.6657 32.6666 22.3602 32.54C22.0547 32.4134 21.7936 32.1991 21.6098 31.9241C21.4261 31.6492 21.3281 31.3259 21.3281 30.9952C21.3287 30.552 21.5051 30.1271 21.8185 29.8137C22.1319 29.5003 22.5568 29.3239 23 29.3233ZM23 31.2296C22.9536 31.2296 22.9083 31.2159 22.8697 31.1901C22.8312 31.1644 22.8011 31.1278 22.7834 31.085C22.7656 31.0421 22.761 30.995 22.77 30.9495C22.779 30.9041 22.8014 30.8623 22.8341 30.8295C22.8669 30.7967 22.9087 30.7744 22.9541 30.7653C22.9996 30.7563 23.0468 30.7609 23.0896 30.7786C23.1324 30.7964 23.169 30.8264 23.1948 30.865C23.2206 30.9035 23.2343 30.9488 23.2343 30.9952C23.2334 31.0571 23.2084 31.1162 23.1647 31.1599C23.1209 31.2037 23.0619 31.2287 23 31.2296Z" fill="#2E68FF"/>
</g>
<defs>
<clipPath id="clip0_51_366">
<rect width="46" height="46" fill="white"/>
</clipPath>
</defs>
</svg>