<svg xmlns="http://www.w3.org/2000/svg" width="46" height="46" viewBox="0 0 46 46" fill="none">
<g clip-path="url(#clip0_51_372)">
<path fill-rule="evenodd" clip-rule="evenodd" d="M4.75196 46.0005C5.38655 45.9996 6.00296 45.7884 6.50481 45.4C7.00667 45.0116 7.36567 44.4679 7.5257 43.8538H17.8351C18.6797 43.8528 19.4894 43.5169 20.0866 42.9196C20.6838 42.3224 21.0198 41.5127 21.0208 40.6681V34.2479C21.6713 34.2844 22.3307 34.3029 22.999 34.3034C23.6666 34.3034 24.3273 34.2844 24.9774 34.2479V40.6681C24.9784 41.5128 25.3144 42.3226 25.9117 42.9198C26.509 43.517 27.3189 43.8529 28.1635 43.8538H38.473C38.6479 44.5286 39.0628 45.1165 39.64 45.5073C40.2172 45.8982 40.9171 46.0652 41.6086 45.977C42.3001 45.8889 42.9357 45.5516 43.3964 45.0285C43.8571 44.5053 44.1113 43.8321 44.1113 43.1351C44.1113 42.438 43.8571 41.7648 43.3964 41.2417C42.9357 40.7185 42.3001 40.3813 41.6086 40.2931C40.9171 40.205 40.2172 40.372 39.64 40.7628C39.0628 41.1536 38.6479 41.7415 38.473 42.4163H28.1635C27.7 42.4159 27.2555 42.2315 26.9277 41.9038C26.5999 41.5761 26.4155 41.1317 26.4149 40.6681V34.1377C27.0909 34.0708 27.752 33.9843 28.3941 33.8784V35.0031C28.3952 35.8477 28.7312 36.6574 29.3285 37.2546C29.9258 37.8517 30.7356 38.1876 31.5802 38.1884H33.1101C33.285 38.8633 33.7 39.4513 34.2772 39.8421C34.8545 40.233 35.5545 40.4001 36.246 40.3119C36.9376 40.2238 37.5733 39.8865 38.034 39.3633C38.4948 38.8401 38.7489 38.1668 38.7489 37.4697C38.7489 36.7725 38.4948 36.0993 38.034 35.5761C37.5733 35.0529 36.9376 34.7156 36.246 34.6275C35.5545 34.5393 34.8545 34.7063 34.2772 35.0972C33.7 35.4881 33.285 36.0761 33.1101 36.7509H31.5802C31.1168 36.7504 30.6725 36.5661 30.3448 36.2384C30.0171 35.9108 29.8327 35.4665 29.832 35.0031V33.6025C30.92 33.3686 31.9876 33.0488 33.025 32.646C35.6708 31.5971 37.2342 30.1676 37.4935 28.5817C37.5198 28.5071 37.5333 28.4286 37.5334 28.3495V6.19643C37.5334 4.42238 35.9322 2.81112 33.025 1.65834C30.3288 0.589105 26.768 0 22.9992 0C19.2305 0 15.6699 0.589105 12.9736 1.65834C10.0663 2.81112 8.4652 4.42238 8.4652 6.19643V28.349C8.46535 28.4281 8.47865 28.5066 8.50455 28.5813C8.76438 30.1671 10.3277 31.5966 12.9736 32.6455C13.8646 32.9938 14.779 33.2786 15.7101 33.4978V35.0031C15.7095 35.4666 15.5251 35.9109 15.1974 36.2387C14.8697 36.5664 14.4254 36.7508 13.9619 36.7514H12.432C12.2571 36.0767 11.8422 35.4888 11.265 35.098C10.6879 34.7072 9.98801 34.5402 9.29657 34.6284C8.60513 34.7165 7.96955 35.0538 7.50889 35.5769C7.04823 36.1 6.79409 36.7731 6.79409 37.4701C6.79409 38.1672 7.04823 38.8403 7.50889 39.3634C7.96955 39.8865 8.60513 40.2238 9.29657 40.3119C9.98801 40.4001 10.6879 40.2331 11.265 39.8423C11.8422 39.4515 12.2571 38.8636 12.432 38.1889H13.9619C14.8065 38.1879 15.6163 37.8519 16.2135 37.2547C16.8107 36.6575 17.1466 35.8477 17.1476 35.0031V33.7992C17.9322 33.9412 18.7441 34.0542 19.5832 34.1383V40.6687C19.5827 41.1321 19.3983 41.5765 19.0706 41.9042C18.7429 42.2319 18.2986 42.4163 17.8351 42.4169H7.52561C7.39127 41.8982 7.11418 41.4275 6.72581 41.0584C6.33744 40.6893 5.85335 40.4365 5.32852 40.3287C4.80368 40.2208 4.25912 40.2623 3.75668 40.4484C3.25425 40.6346 2.81406 40.9578 2.48611 41.3815C2.15817 41.8052 1.9556 42.3124 1.90141 42.8455C1.84722 43.3785 1.94359 43.9161 2.17957 44.3971C2.41554 44.8782 2.78167 45.2834 3.23638 45.5668C3.69109 45.8502 4.21616 46.0005 4.75196 46.0005ZM41.2465 41.7077C41.5288 41.7075 41.8049 41.7911 42.0397 41.9478C42.2746 42.1046 42.4577 42.3274 42.5658 42.5882C42.674 42.849 42.7024 43.136 42.6474 43.413C42.5924 43.6899 42.4566 43.9443 42.257 44.144C42.0574 44.3437 41.8031 44.4798 41.5262 44.5349C41.2493 44.5901 40.9622 44.5619 40.7014 44.4538C40.4405 44.3458 40.2175 44.1629 40.0606 43.9282C39.9038 43.6934 39.82 43.4174 39.82 43.1351C39.8203 42.7568 39.9707 42.394 40.2381 42.1264C40.5055 41.8588 40.8682 41.7083 41.2465 41.7077ZM35.885 36.0419C36.1673 36.0419 36.4433 36.1257 36.6781 36.2826C36.9128 36.4395 37.0958 36.6625 37.2038 36.9234C37.3118 37.1843 37.3401 37.4713 37.2849 37.7482C37.2298 38.0252 37.0938 38.2795 36.8941 38.4792C36.6944 38.6788 36.44 38.8147 36.1631 38.8697C35.8861 38.9248 35.5991 38.8965 35.3382 38.7884C35.0774 38.6803 34.8545 38.4972 34.6976 38.2624C34.5408 38.0276 34.4571 37.7516 34.4572 37.4692C34.4576 37.0907 34.6082 36.7279 34.8759 36.4603C35.1436 36.1927 35.5065 36.0422 35.885 36.0419ZM9.65742 38.897C9.37508 38.897 9.09909 38.8133 8.86435 38.6564C8.62961 38.4995 8.44665 38.2765 8.33862 38.0157C8.23059 37.7548 8.20234 37.4678 8.25743 37.1909C8.31252 36.914 8.44848 36.6596 8.64813 36.4599C8.84777 36.2603 9.10213 36.1243 9.37905 36.0692C9.65596 36.0142 9.94299 36.0424 10.2038 36.1504C10.4647 36.2585 10.6877 36.4414 10.8445 36.6762C11.0014 36.9109 11.0852 37.1869 11.0852 37.4692C11.0848 37.8478 10.9342 38.2107 10.6665 38.4784C10.3989 38.746 10.036 38.8966 9.65742 38.897ZM9.90279 17.1517C9.90279 14.9009 15.2817 12.3929 22.9991 12.3929C30.7165 12.3929 36.0959 14.9009 36.0959 17.1517C36.0959 19.4025 30.7168 21.911 22.9992 21.911C15.2816 21.911 9.90279 19.4029 9.90279 17.1517ZM16.093 22.6294C15.0304 22.8606 13.9875 23.1748 12.9739 23.569C11.6847 24.08 10.6532 24.6814 9.90297 25.3473V19.9117C10.6532 20.5779 11.6847 21.1793 12.9739 21.6906C13.9875 22.0848 15.0304 22.3988 16.093 22.6298V22.6294ZM9.90279 14.3919V8.95634C10.653 9.62254 11.6845 10.2239 12.9737 10.7352C13.9874 11.1292 15.0303 11.4434 16.0928 11.6748C15.0301 11.9058 13.9872 12.2198 12.9736 12.6141C11.6844 13.1252 10.6529 13.7266 9.9027 14.3923L9.90279 14.3919ZM29.9055 11.6745C30.9683 11.4431 32.0113 11.1289 33.0251 10.7349C34.3143 10.2238 35.3454 9.62245 36.0959 8.95598V14.3915C35.3454 13.7258 34.3143 13.1247 33.0251 12.6133C32.0114 12.219 30.9683 11.905 29.9055 11.6741V11.6745ZM33.0251 21.6903C34.3143 21.1791 35.3454 20.5777 36.0959 19.9114V25.3469C35.3454 24.6811 34.3143 24.0801 33.0251 23.5686C32.0114 23.1744 30.9683 22.8603 29.9055 22.629C30.9683 22.3981 32.0114 22.0841 33.0251 21.6899V21.6903ZM22.9992 1.4375C30.7168 1.4375 36.096 3.94558 36.096 6.19643C36.096 8.44729 30.7168 10.9557 22.9992 10.9557C15.2816 10.9557 9.9027 8.44765 9.9027 6.19643C9.9027 3.94522 15.2816 1.4375 22.9992 1.4375ZM9.9027 28.1074C9.9027 25.8562 15.2816 23.3481 22.999 23.3481C30.7164 23.3481 36.0958 25.8562 36.0958 28.1074C36.0958 30.3587 30.7168 32.8663 22.9992 32.8663C15.2816 32.8663 9.9027 30.3582 9.9027 28.1074ZM4.75196 41.7077C5.03425 41.7077 5.31021 41.7915 5.54492 41.9483C5.77964 42.1052 5.96257 42.3281 6.07059 42.5889C6.17861 42.8497 6.20686 43.1367 6.15178 43.4136C6.09669 43.6905 5.96074 43.9448 5.76112 44.1444C5.5615 44.344 5.30717 44.4799 5.03029 44.535C4.75342 44.5901 4.46643 44.5618 4.20562 44.4538C3.94481 44.3457 3.7219 44.1628 3.56506 43.928C3.40823 43.6933 3.32452 43.4174 3.32452 43.1351C3.32483 42.7566 3.47532 42.3937 3.74295 42.1261C4.01058 41.8585 4.37348 41.708 4.75196 41.7077Z" fill="#2E68FF"/>
</g>
<defs>
<clipPath id="clip0_51_372">
<rect width="46" height="46" fill="white"/>
</clipPath>
</defs>
</svg>