<svg class="lqd-highlight-brush-svg lqd-highlight-brush-svg-1" width="148" height="16" viewBox="0 0 148 16" fill="none" xmlns="http://www.w3.org/2000/svg"><path d="M102.206 13C85.7355 9.89053 67.3488 11.5778 50.6838 11.8633C45.8919 11.9455 40.9891 12.4936 36.2019 12.2589C35.5775 12.2284 32.8533 12.1141 32.3423 11.503C32.2756 11.4234 34.3998 11.1098 35.4319 10.9757C37.4385 10.7149 39.4442 10.5224 41.4493 10.247C46.7204 9.52317 52.0838 9.17004 57.4012 8.84471C71.0508 8.01027 95.4692 5.43876 108.809 9.06517C109.47 9.24483 107.427 9.03426 106.736 9.01757C105.6 8.99037 104.465 8.95102 103.329 8.9195C99.6236 8.8171 95.8871 8.63496 92.1815 8.6636C80.2399 8.75528 68.256 8.31478 56.3171 8.70934C52.7247 8.82822 49.1438 9.07505 45.5498 9.17045C43.468 9.22567 43.5613 9.27244 41.4098 9.20795C40.4769 9.17993 37.8902 9.42778 38.628 8.92279C39.9275 8.03313 43.9888 8.25566 45.5596 8.07414C52.7318 7.2463 59.8861 6.16523 67.0949 5.58442C85.5787 4.0952 104.396 4.0917 122.922 4.71475C130.5 4.96961 138.157 3.98375 145.703 4.78028C127.393 2.69212 108.361 2.9886 89.9504 3.04897C69.2217 3.11696 48.5164 3.12149 27.7873 3.50719C19.2772 3.66542 10.9388 5.09649 2.40283 4.99203" stroke="#FFC119" stroke-width="4.05049" stroke-miterlimit="1.5" stroke-linecap="round" stroke-linejoin="round"/></svg>