<svg xmlns="http://www.w3.org/2000/svg" width="46" height="46" viewBox="0 0 46 46" fill="none">
<g clip-path="url(#clip0_51_376)">
<path fill-rule="evenodd" clip-rule="evenodd" d="M43.7206 39.6391L39.8787 35.7955L35.7962 39.878L39.6398 43.7211C40.1811 44.2622 40.9152 44.5662 41.6806 44.5661C42.446 44.566 43.18 44.2618 43.7212 43.7205C44.2623 43.1792 44.5663 42.445 44.5662 41.6796C44.566 40.9142 44.2619 40.1802 43.7206 39.6391ZM32.6546 36.5817C32.6545 36.5329 32.6641 36.4846 32.6827 36.4395C32.7013 36.3944 32.7286 36.3534 32.7631 36.3189L36.3192 32.7623C36.3537 32.7278 36.3947 32.7004 36.4398 32.6817C36.4848 32.663 36.5332 32.6534 36.582 32.6534C36.6308 32.6534 36.6791 32.663 36.7242 32.6817C36.7693 32.7004 36.8102 32.7278 36.8447 32.7623L37.3299 33.2475L33.2484 37.3301L32.7622 36.8449C32.693 36.775 32.6542 36.6806 32.6544 36.5822L32.6546 36.5817ZM32.8433 34.2058L34.2062 32.8425L32.6691 31.3053C32.455 31.5426 32.2336 31.7756 32.005 32.0041C31.777 32.2322 31.543 32.4534 31.3061 32.6683L32.8433 34.2058ZM18.7484 36.0578C16.4743 36.064 14.2215 35.6191 12.1204 34.7489C10.0194 33.8786 8.11179 32.6003 6.50807 30.9879C-0.240988 24.2388 -0.240988 13.2568 6.50807 6.50773C13.2571 -0.241333 24.2387 -0.241333 30.9878 6.50773C37.7369 13.2568 37.7369 24.2388 30.9878 30.9879C29.3842 32.6003 27.4768 33.8786 25.3759 34.7488C23.275 35.6191 21.0224 36.064 18.7484 36.0578ZM38.3471 34.2639L38.8629 34.7797L34.7799 38.8622L34.2646 38.3459L38.3471 34.2639ZM44.7377 38.6227C45.1392 39.0241 45.4578 39.5007 45.6751 40.0253C45.8925 40.5499 46.0043 41.1121 46.0044 41.6799C46.0045 42.2478 45.8927 42.81 45.6754 43.3346C45.4582 43.8593 45.1398 44.336 44.7383 44.7375C44.3368 45.1391 43.8602 45.4576 43.3356 45.6749C42.8111 45.8923 42.2488 46.0042 41.681 46.0042C41.1132 46.0043 40.5509 45.8925 40.0263 45.6753C39.5017 45.458 39.025 45.1396 38.6234 44.7381L31.746 37.8611C31.4073 37.5215 31.2171 37.0614 31.2171 36.5817C31.2171 36.102 31.4073 35.6419 31.746 35.3022L31.826 35.2221L30.1991 33.5947C26.5906 36.3765 22.0927 37.7493 17.5458 37.4567C12.9989 37.164 8.71415 35.2259 5.49203 32.0045C-1.81766 24.6948 -1.81766 12.8011 5.49203 5.4916C12.8017 -1.81791 24.6954 -1.81809 32.0049 5.4916C38.7387 12.2259 39.2689 22.851 33.5942 30.1981L35.222 31.8263L35.3028 31.7455C35.6425 31.4068 36.1026 31.2166 36.5823 31.2166C37.062 31.2166 37.5221 31.4068 37.8617 31.7455L44.7376 38.6225L44.7377 38.6227ZM31.1073 21.1726C31.2979 21.1726 31.4807 21.0968 31.6155 20.962C31.7503 20.8273 31.826 20.6444 31.826 20.4538V14.6283C31.8263 14.6042 31.825 14.5802 31.8223 14.5564C31.8214 14.5474 31.8197 14.5372 31.8189 14.528C31.8163 14.5144 31.8154 14.5004 31.8125 14.4868C31.81 14.4754 31.807 14.4644 31.8035 14.4533C31.8 14.4423 31.798 14.4301 31.7955 14.4186C31.793 14.4071 31.7874 14.397 31.7836 14.3864C31.7799 14.3758 31.7756 14.3635 31.7713 14.3525C31.7671 14.3416 31.7623 14.333 31.7578 14.3229C31.7522 14.3114 31.7472 14.3 31.7416 14.2885C31.7361 14.2795 31.7306 14.2705 31.7251 14.2615C31.7183 14.2501 31.7119 14.2391 31.7048 14.2281C31.6976 14.2171 31.6912 14.209 31.684 14.1997C31.6768 14.1904 31.6704 14.1806 31.6632 14.1717C31.6501 14.1556 31.6357 14.1399 31.6213 14.125C31.6191 14.123 31.6174 14.1208 31.6157 14.1191C31.614 14.1174 31.6124 14.1166 31.6111 14.1153C31.5958 14.0999 31.5797 14.0853 31.5628 14.0717C31.5545 14.0647 31.5459 14.0582 31.5369 14.0522C31.5268 14.0445 31.517 14.0365 31.506 14.0297C31.4951 14.023 31.4853 14.017 31.4755 14.0107C31.4657 14.0044 31.456 13.9988 31.4463 13.9937C31.4352 13.9878 31.4242 13.9831 31.4145 13.978C31.4048 13.9728 31.3928 13.9678 31.3822 13.9631C31.3716 13.9585 31.3615 13.9556 31.3518 13.9517C31.339 13.9475 31.3284 13.9433 31.3158 13.9394C31.306 13.9365 31.2951 13.9343 31.2853 13.9314C31.2726 13.9284 31.2598 13.9251 31.2475 13.9224C31.2352 13.9198 31.2243 13.9186 31.2124 13.9169C31.2006 13.9152 31.1899 13.9131 31.1781 13.9122C31.1577 13.9101 31.1361 13.9092 31.1152 13.9089C31.1126 13.9089 31.1101 13.9089 31.1071 13.9089H25.2808C25.0902 13.9089 24.9074 13.9846 24.7726 14.1194C24.6378 14.2542 24.5621 14.437 24.5621 14.6276C24.5621 14.8183 24.6378 15.0011 24.7726 15.1359C24.9074 15.2707 25.0902 15.3464 25.2808 15.3464H29.3727L22.868 21.8511L15.1369 14.1197C15.0021 13.9851 14.8193 13.9095 14.6288 13.9095C14.4383 13.9095 14.2556 13.9851 14.1207 14.1197L5.88115 22.3592C5.74955 22.4946 5.67651 22.6763 5.67782 22.8651C5.67912 23.0539 5.75466 23.2347 5.88811 23.3682C6.02157 23.5018 6.20221 23.5775 6.39101 23.5789C6.57981 23.5804 6.7616 23.5075 6.8971 23.376L14.6282 15.6445L22.3591 23.376C22.4942 23.5106 22.677 23.5861 22.8677 23.5861C23.0583 23.5861 23.2412 23.5106 23.3762 23.376L30.3885 16.3633V20.4538C30.3885 20.6444 30.4643 20.8273 30.5991 20.962C30.7339 21.0968 30.9167 21.1726 31.1073 21.1726Z" fill="#2E68FF"/>
</g>
<defs>
<clipPath id="clip0_51_376">
<rect width="46" height="46" fill="white"/>
</clipPath>
</defs>
</svg>