<svg xmlns="http://www.w3.org/2000/svg" width="47" height="46" viewBox="0 0 47 46" fill="none">
<g clip-path="url(#clip0_51_368)">
<path fill-rule="evenodd" clip-rule="evenodd" d="M21.5924 27.3406L24.0182 18.2873C24.0676 18.1031 24.1881 17.946 24.3532 17.8507C24.5184 17.7553 24.7147 17.7294 24.8989 17.7788C25.0831 17.8281 25.2402 17.9486 25.3356 18.1138C25.431 18.279 25.4568 18.4752 25.4075 18.6595L22.9817 27.7131C22.9323 27.8973 22.8117 28.0544 22.6465 28.1497C22.4813 28.2451 22.285 28.2709 22.1008 28.2215C21.9166 28.1721 21.7595 28.0515 21.6642 27.8863C21.5689 27.7212 21.543 27.5248 21.5924 27.3406ZM19.9824 26.6855L16.8048 23.5086C16.6702 23.3736 16.5947 23.1908 16.5947 23.0003C16.5947 22.8097 16.6702 22.6269 16.8048 22.4919L19.9824 19.3151C20.1178 19.1828 20.2998 19.1092 20.489 19.1103C20.6782 19.1114 20.8594 19.1871 20.9932 19.3209C21.127 19.4547 21.2026 19.6359 21.2036 19.8251C21.2046 20.0144 21.131 20.1964 20.9987 20.3316L18.3296 23.0007L20.9987 25.6691C21.0676 25.7353 21.1226 25.8146 21.1605 25.9024C21.1984 25.9901 21.2184 26.0846 21.2193 26.1801C21.2203 26.2757 21.2021 26.3705 21.166 26.459C21.1299 26.5475 21.0764 26.6279 21.0088 26.6955C20.9413 26.7631 20.8609 26.8165 20.7724 26.8527C20.6839 26.8888 20.5891 26.9069 20.4935 26.906C20.3979 26.9051 20.3035 26.8851 20.2158 26.8472C20.128 26.8093 20.0487 26.7543 19.9824 26.6854V26.6855ZM26.0012 25.6692L28.6704 23.0008L26.0012 20.3316C25.8703 20.1961 25.7979 20.0145 25.7995 19.8261C25.8012 19.6376 25.8767 19.4573 26.01 19.3241C26.1433 19.1908 26.3235 19.1152 26.512 19.1136C26.7004 19.112 26.882 19.1844 27.0176 19.3153L30.1952 22.4922C30.3298 22.6272 30.4053 22.81 30.4053 23.0005C30.4053 23.1911 30.3298 23.3739 30.1952 23.5089L27.0176 26.6857C26.882 26.8167 26.7004 26.8891 26.512 26.8875C26.3235 26.8858 26.1433 26.8103 26.01 26.677C25.8767 26.5437 25.8012 26.3635 25.7995 26.175C25.7979 25.9866 25.8703 25.805 26.0012 25.6694V25.6692ZM23.5 13.7191C21.6644 13.7191 19.8701 14.2635 18.3438 15.2832C16.8176 16.303 15.6281 17.7525 14.9256 19.4484C14.2232 21.1442 14.0394 23.0103 14.3975 24.8106C14.7556 26.6109 15.6395 28.2646 16.9374 29.5626C18.2354 30.8605 19.8891 31.7444 21.6894 32.1025C23.4897 32.4606 25.3558 32.2768 27.0516 31.5744C28.7475 30.872 30.197 29.6824 31.2168 28.1562C32.2365 26.6299 32.7809 24.8356 32.7809 23C32.778 20.5394 31.7993 18.1805 30.0594 16.4406C28.3195 14.7007 25.9606 13.722 23.5 13.7191ZM23.5 33.7188C25.6199 33.7188 27.6922 33.0902 29.4548 31.9124C31.2174 30.7347 32.5912 29.0607 33.4025 27.1022C34.2137 25.1437 34.426 22.9886 34.0124 20.9094C33.5988 18.8302 32.578 16.9204 31.079 15.4214C29.58 13.9224 27.6702 12.9016 25.591 12.488C23.5119 12.0745 21.3568 12.2867 19.3983 13.098C17.4397 13.9092 15.7658 15.283 14.588 17.0456C13.4103 18.8083 12.7816 20.8806 12.7816 23.0005C12.7849 25.8421 13.9152 28.5665 15.9246 30.5759C17.934 32.5853 20.6583 33.7156 23.5 33.7189V33.7188ZM1.9375 20.261V25.7395L6.20643 26.3124C6.35134 26.3318 6.4869 26.3949 6.59501 26.4934C6.70313 26.5918 6.77866 26.7208 6.81152 26.8633C7.23638 28.7059 7.96571 30.4646 8.96948 32.0671C9.0467 32.1912 9.08437 32.3357 9.07749 32.4817C9.0706 32.6276 9.01949 32.768 8.93094 32.8843L6.31568 36.3104L10.1896 40.1844L13.6157 37.5692C13.7319 37.4804 13.8724 37.4291 14.0185 37.4223C14.1646 37.4155 14.3093 37.4534 14.4332 37.531C16.0356 38.5348 17.7943 39.2641 19.6367 39.689C19.7792 39.7217 19.9084 39.7971 20.0068 39.9052C20.1053 40.0132 20.1684 40.1488 20.1876 40.2938L20.7606 44.5625H26.2394L26.8124 40.2931C26.8318 40.1483 26.8949 40.0128 26.9934 39.9047C27.0918 39.7967 27.2208 39.7213 27.3633 39.6886C29.2059 39.2639 30.9646 38.5347 32.5671 37.531C32.6912 37.4536 32.8358 37.4158 32.9819 37.4226C33.1279 37.4294 33.2684 37.4805 33.3847 37.5692L36.8104 40.1844L40.6843 36.3104L38.0691 32.8844C37.9805 32.7682 37.9294 32.6278 37.9225 32.4819C37.9156 32.3359 37.9533 32.1913 38.0305 32.0673C39.0343 30.4648 39.7637 28.7059 40.1885 26.8633C40.2213 26.7208 40.2968 26.5918 40.4048 26.4933C40.5128 26.3949 40.6483 26.3317 40.7932 26.3123L45.0625 25.7395V20.261L40.793 19.688C40.6482 19.6685 40.5127 19.6053 40.4047 19.5068C40.2966 19.4083 40.2212 19.2792 40.1885 19.1367C39.7632 17.2943 39.0339 15.5356 38.0305 13.9329C37.9533 13.8089 37.9156 13.6643 37.9225 13.5183C37.9294 13.3724 37.9805 13.232 38.0691 13.1157L40.6843 9.68974L36.8104 5.81612L33.3848 8.43139C33.2685 8.5201 33.128 8.57128 32.982 8.5781C32.8359 8.58492 32.6912 8.54706 32.5672 8.46957C30.9647 7.46579 29.2059 6.73656 27.3633 6.31197C27.2208 6.27912 27.0917 6.20358 26.9933 6.09545C26.8948 5.98731 26.8317 5.85173 26.8124 5.70679L26.2394 1.4375H20.7606L20.1875 5.70652C20.1682 5.85149 20.1052 5.98713 20.0067 6.09531C19.9083 6.2035 19.7792 6.27908 19.6367 6.31197C17.7941 6.73616 16.0353 7.46541 14.4331 8.46957C14.3091 8.54698 14.1645 8.58479 14.0184 8.57797C13.8724 8.57115 13.7318 8.52002 13.6156 8.43139L10.1896 5.81612L6.31568 9.6901L8.93175 13.1166C9.0206 13.2327 9.07184 13.3732 9.07858 13.5192C9.08533 13.6653 9.04726 13.8099 8.96948 13.9337C7.96618 15.536 7.23713 17.2945 6.81233 19.1367C6.77953 19.2791 6.70411 19.4081 6.59613 19.5065C6.48816 19.6049 6.35275 19.6681 6.20795 19.6876L1.9375 20.261ZM1.12334 27.0802L5.53035 27.6719C5.96041 29.3322 6.62028 30.9244 7.49083 32.4021L4.79211 35.938C4.68651 36.0763 4.63469 36.2482 4.64626 36.4218C4.65782 36.5955 4.73199 36.759 4.855 36.8821L9.61851 41.6453C9.74161 41.7683 9.90517 41.8425 10.0788 41.854C10.2525 41.8656 10.4244 41.8138 10.5628 41.7082L14.0981 39.0089C15.5758 39.8798 17.1678 40.5401 18.8281 40.9705L19.4194 45.3773C19.4429 45.5496 19.528 45.7076 19.6589 45.822C19.7898 45.9365 19.9577 45.9997 20.1316 46H26.8684C27.0424 45.9998 27.2104 45.9366 27.3414 45.8221C27.4724 45.7075 27.5574 45.5494 27.5808 45.377L28.1719 40.9702C29.8322 40.5401 31.4243 39.88 32.902 39.0092L36.4375 41.7084C36.5758 41.814 36.7478 41.8659 36.9214 41.8543C37.0951 41.8428 37.2587 41.7686 37.3818 41.6455L42.1453 36.8824C42.2683 36.7593 42.3424 36.5957 42.354 36.4221C42.3656 36.2485 42.3138 36.0765 42.2082 35.9382L39.5092 32.4021C40.38 30.9244 41.0402 29.3323 41.4705 27.6719L45.8764 27.0803C46.049 27.0574 46.2073 26.9726 46.3221 26.8416C46.4368 26.7107 46.5 26.5425 46.5 26.3684V19.6321C46.5 19.458 46.4368 19.2897 46.3221 19.1588C46.2073 19.0278 46.0489 18.943 45.8762 18.9201L41.4697 18.3281C41.0398 16.6678 40.3799 15.0757 39.5092 13.598L42.2079 10.0625C42.3135 9.92417 42.3653 9.75222 42.3538 9.57856C42.3422 9.4049 42.268 9.24134 42.145 9.11824L37.3815 4.35518C37.2584 4.23215 37.0948 4.15796 36.9212 4.1464C36.7475 4.13483 36.5756 4.18667 36.4372 4.29229L32.9019 6.99155C31.4242 6.12066 29.8322 5.46042 28.1719 5.02999L27.5807 0.623246C27.5574 0.45081 27.4724 0.292664 27.3414 0.178079C27.2105 0.0634951 27.0424 0.000232008 26.8684 0L20.1316 0C19.9576 0.000258216 19.7896 0.0634935 19.6587 0.178015C19.5277 0.292536 19.4426 0.450598 19.4192 0.622977L18.8281 5.02999C17.1679 5.46025 15.5758 6.12027 14.0981 6.99092L10.5625 4.29211C10.4242 4.18649 10.2522 4.13465 10.0786 4.14622C9.9049 4.15778 9.74134 4.23197 9.61824 4.355L4.85473 9.11806C4.7317 9.24116 4.65751 9.40473 4.64595 9.57838C4.63438 9.75204 4.68622 9.92399 4.79184 10.0623L7.49146 13.5986C6.62049 15.076 5.9604 16.6679 5.53035 18.3281L1.12361 18.9201C0.951002 18.943 0.792599 19.0278 0.677882 19.1588C0.563164 19.2898 0.499948 19.458 0.5 19.6321V26.3684C0.499948 26.5425 0.563164 26.7107 0.677882 26.8417C0.792599 26.9727 0.951002 27.0575 1.12361 27.0804L1.12334 27.0802Z" fill="#2E68FF"/>
</g>
<defs>
<clipPath id="clip0_51_368">
<rect width="46" height="46" fill="white" transform="translate(0.5)"/>
</clipPath>
</defs>
</svg>